<svg xmlns="http://www.w3.org/2000/svg" fill="none" viewBox="6 0 111 24.61">
<path d="M10 22.2832H8V20.2832H10V22.2832ZM12 20.2832H10V18.2832H12V20.2832ZM14 18.2832H12V16.2832H14V18.2832ZM16 16.2832H14V14.2832H16V16.2832ZM8 11.2832H16V12.2832H18V14.2832H16V13.2832H8V12.2832H6V10.2832H8V11.2832ZM10 10.2832H8V8.2832H10V10.2832ZM12 8.2832H10V6.2832H12V8.2832ZM14 6.2832H12V4.2832H14V6.2832ZM16 4.2832H14V2.2832H16V4.2832Z" fill="#8232FF"/>
<path d="M50.3901 24.2832H45.7817L37.1934 0.226074H41.125L44.9922 11.2798L47.957 20.8833H48.1826L51.228 11.312L55.0791 0.226074H58.9785L50.3901 24.2832ZM58.7871 22.2046C57.2939 20.5825 56.5473 18.3804 56.5473 15.5981C56.5473 12.8159 57.3047 10.6191 58.8193 9.00781C60.334 7.39648 62.3804 6.59082 64.9585 6.59082C67.4614 6.59082 69.4863 7.39648 71.0332 9.00781C72.5908 10.5977 73.3696 12.7944 73.3696 15.5981C73.3696 18.3589 72.623 20.5503 71.1299 22.1724C69.6367 23.7944 67.5796 24.6055 64.9585 24.6055C62.3481 24.6055 60.291 23.8052 58.7871 22.2046ZM60.0117 14.3252V17.0161C60.0117 18.4985 60.4682 19.6641 61.3813 20.5127C62.2944 21.3506 63.4868 21.7695 64.9585 21.7695C66.4194 21.7695 67.6011 21.3452 68.5034 20.4966C69.4165 19.6479 69.873 18.4878 69.873 17.0161V14.3252C69.873 12.875 69.4165 11.7041 68.5034 10.8125C67.5903 9.91016 66.4087 9.45898 64.9585 9.45898C63.4868 9.45898 62.2944 9.90479 61.3813 10.7964C60.4682 11.688 60.0117 12.8643 60.0117 14.3252ZM78.7534 24.2832H75.3857V0.000488281H78.7534V24.2832ZM89.9218 9.76514H86.3286V21.5117H89.9218V24.2832H85.829C83.9169 24.2832 82.9609 23.3486 82.9609 21.4795V9.76514H79.8349V6.9292H82.9609V1.28955H86.3286V6.9292H89.9218V9.76514ZM94.9189 6.9292H100.929V9.76514H95.3217V24.2832H91.9218V9.89404C91.9218 8.94873 92.142 8.21826 92.5824 7.70264C93.0336 7.18701 93.8124 6.9292 94.9189 6.9292ZM99.8031 19.3042C99.8031 17.6069 100.356 16.2856 101.463 15.3403C102.58 14.395 104.127 13.9224 106.103 13.9224H111.147V12.6655C111.147 10.4204 109.96 9.29785 107.586 9.29785C106.436 9.29785 105.539 9.56104 104.895 10.0874C104.261 10.6138 103.917 11.3442 103.864 12.2788H100.496C100.603 10.4849 101.296 9.08838 102.575 8.08936C103.864 7.09033 105.588 6.59082 107.747 6.59082C108.832 6.59082 109.815 6.74121 110.696 7.04199C111.577 7.34277 112.259 7.73486 112.742 8.21826C113.945 9.36768 114.547 10.8716 114.547 12.73V21.8018H116.996V24.2832H113.854C113.016 24.2832 112.409 24.1221 112.033 23.7998C111.657 23.4775 111.442 22.978 111.389 22.3013L111.356 21.4795H111.115C110.739 22.4248 110.024 23.1821 108.972 23.7515C107.93 24.3208 106.721 24.6055 105.346 24.6055C103.638 24.6055 102.285 24.1274 101.286 23.1714C100.297 22.2046 99.8031 20.9155 99.8031 19.3042ZM103.267 18.5791V19.4976C103.267 20.2817 103.531 20.8833 104.057 21.3022C104.594 21.7104 105.341 21.9146 106.297 21.9146C107.79 21.9146 108.972 21.4795 109.842 20.6094C110.712 19.7285 111.147 18.5576 111.147 17.0967V16.2588H106.538C105.507 16.2588 104.702 16.4683 104.121 16.8872C103.552 17.2954 103.267 17.8594 103.267 18.5791Z" fill="#201F24"/>
</svg>